HIERARCHY
ROOT Hips
{
	OFFSET 0.00000 0.00000 0.00000
	CHANNELS 6 Xposition Yposition Zposition Zrotation Yrotation Xrotation 
	JOINT LHipJoint
	{
		OFFSET 0 0 0
		CHANNELS 3 Zrotation Yrotation Xrotation
		JOINT LeftUpLeg
		{
			OFFSET 1.29432 -1.88279 0.59910
			CHANNELS 3 Zrotation Yrotation Xrotation
			JOINT LeftLeg
			{
				OFFSET 2.63039 -7.22694 0.00000
				CHANNELS 3 Zrotation Yrotation Xrotation
				JOINT LeftFoot
				{
					OFFSET 2.70674 -7.43672 0.00000
					CHANNELS 3 Zrotation Yrotation Xrotation
					JOINT LeftToeBase
					{
						OFFSET 0.15066 -0.41394 2.09027
						CHANNELS 3 Zrotation Yrotation Xrotation
						End Site
						{
							OFFSET 0.00000 -0.00000 1.07518
						}
					}
				}
			}
		}
	}
	JOINT RHipJoint
	{
		OFFSET 0 0 0
		CHANNELS 3 Zrotation Yrotation Xrotation
		JOINT RightUpLeg
		{
			OFFSET -1.37068 -1.88279 0.59910
			CHANNELS 3 Zrotation Yrotation Xrotation
			JOINT RightLeg
			{
				OFFSET -2.57023 -7.06166 0.00000
				CHANNELS 3 Zrotation Yrotation Xrotation
				JOINT RightFoot
				{
					OFFSET -2.76461 -7.59570 0.00000
					CHANNELS 3 Zrotation Yrotation Xrotation
					JOINT RightToeBase
					{
						OFFSET -0.24175 -0.64785 2.19719
						CHANNELS 3 Zrotation Yrotation Xrotation
						End Site
						{
							OFFSET -0.00000 -0.00000 1.14803
						}
					}
				}
			}
		}
	}
	JOINT LowerBack
	{
		OFFSET 0 0 0
		CHANNELS 3 Zrotation Yrotation Xrotation
		JOINT Spine
		{
			OFFSET -0.03138 2.03983 -0.23106
			CHANNELS 3 Zrotation Yrotation Xrotation
			JOINT Spine1
			{
				OFFSET -0.00325 2.06238 -0.06878
				CHANNELS 3 Zrotation Yrotation Xrotation
				JOINT Neck
				{
					OFFSET 0 0 0
					CHANNELS 3 Zrotation Yrotation Xrotation
					JOINT Neck1
					{
						OFFSET -0.00002 1.75318 0.18090
						CHANNELS 3 Zrotation Yrotation Xrotation
						JOINT Head
						{
							OFFSET 0.08806 1.75856 -0.25387
							CHANNELS 3 Zrotation Yrotation Xrotation
							End Site
							{
								OFFSET 0.02554 1.78597 -0.10684
							}
						}
					}
				}
				JOINT LeftShoulder
				{
					OFFSET 0 0 0
					CHANNELS 3 Zrotation Yrotation Xrotation
					JOINT LeftArm
					{
						OFFSET 3.09657 1.33597 -0.04414
						CHANNELS 3 Zrotation Yrotation Xrotation
						JOINT LeftForeArm
						{
							OFFSET 5.34298 -0.00000 -0.00000
							CHANNELS 3 Zrotation Yrotation Xrotation
							JOINT LeftHand
							{
								OFFSET 3.67262 -0.00000 -0.00000
								CHANNELS 3 Zrotation Yrotation Xrotation
								JOINT LeftFingerBase
								{
									OFFSET 0 0 0
									CHANNELS 3 Zrotation Yrotation Xrotation
									JOINT LeftHandIndex1
									{
										OFFSET 0.59930 -0.00000 -0.00000
										CHANNELS 3 Zrotation Yrotation Xrotation
										End Site
										{
											OFFSET 0.48317 -0.00000 -0.00000
										}
									}
								}
								JOINT LThumb
								{
									OFFSET 0 0 0
									CHANNELS 3 Zrotation Yrotation Xrotation
									End Site
									{
										OFFSET 0.49055 -0.00000 0.49055
									}
								}
							}
						}
					}
				}
				JOINT RightShoulder
				{
					OFFSET 0 0 0
					CHANNELS 3 Zrotation Yrotation Xrotation
					JOINT RightArm
					{
						OFFSET -3.16460 1.32273 -0.23382
						CHANNELS 3 Zrotation Yrotation Xrotation
						JOINT RightForeArm
						{
							OFFSET -5.54967 -0.01834 0.03348
							CHANNELS 3 Zrotation Yrotation Xrotation
							JOINT RightHand
							{
								OFFSET -3.69401 -0.00000 0.00000
								CHANNELS 3 Zrotation Yrotation Xrotation
								JOINT RightFingerBase
								{
									OFFSET 0 0 0
									CHANNELS 3 Zrotation Yrotation Xrotation
									JOINT RightHandIndex1
									{
										OFFSET -0.63811 -0.00000 0.00000
										CHANNELS 3 Zrotation Yrotation Xrotation
										End Site
										{
											OFFSET -0.51446 -0.00000 0.00000
										}
									}
								}
								JOINT RThumb
								{
									OFFSET 0 0 0
									CHANNELS 3 Zrotation Yrotation Xrotation
									End Site
									{
										OFFSET -0.52232 -0.00000 0.52232
									}
								}
							}
						}
					}
				}
			}
		}
	}
}
MOTION
Frames: 10
Frame Time: .0083333
9.6477 18.1394 -19.3434 0 0 0 0 0 0 -21 0 0 0 0 0 0 0 0 0 0 0 0 0 0 21 0 0 0 0 0 0 0 0 0 0 0 0 0 0 0 0 0 0 0 0 0 0 -16 0 0 21 0 0 11 0 0 0 -8 0 0 0 0 0 0 0 0 0 0 0 0 0 0 0 0 0 0 0 0 8 0 0 0 0 0 0 0 0 0 0 0 0 0 0 0 0 0
9.6477 18.1394 -19.3434 -0.0314 -13.5053 4.4208 0.0000 0.0000 0.0000 -16.9938 0.1079 -11.0356 7.8945 16.0411 52.1818 -0.0091 -2.2501 2.3969 0.0765 -1.7843 -4.9100 0.0000 0.0000 0.0000 23.6909 7.2904 -13.6018 -1.4031 -7.4930 21.1844 -0.3216 2.9056 -10.1049 -0.0030 0.3527 -0.9691 0.3738 -0.8947 0.9104 1.4649 -1.1999 1.1097 1.2937 -0.6043 0.6494 -0.8207 1.7744 -9.4842 -2.7088 3.2107 23.5472 -0.4510 1.1239 8.9580 0.0000 -0.0000 0.0000 -89.2156 7.2361 9.7591 13.7678 -22.4018 -2.7390 -0.0000 -0.0000 23.4622 15.0619 29.5711 7.5649 -7.1250 0.0000 -0.0000 -18.2975 59.4747 -6.6035 0.0000 -0.0000 0.0000 85.0355 -5.1868 12.2070 -14.7238 23.7599 -3.1138 0.0000 0.0000 19.9656 -20.4959 17.3025 -6.3438 7.1250 -0.0000 -0.0000 4.8992 -11.6361 3.8248
9.6119 18.1404 -19.2502 -0.1665 -13.6425 4.4345 0.0000 0.0000 0.0000 -16.7473 0.0965 -12.1673 8.1696 16.2426 53.1713 -0.0052 -1.3157 0.8189 0.0655 -1.6516 -4.5437 0.0000 0.0000 0.0000 23.9513 6.5452 -13.3988 -1.3774 -7.4269 20.9863 -0.3306 3.6125 -10.2217 -0.0011 0.2101 -0.5771 0.4557 -0.7622 1.1347 1.4971 -1.0157 0.8509 1.2858 -0.5107 0.2542 -1.0807 1.6783 -8.9756 -2.5819 3.0809 23.5154 -0.3823 1.0589 8.8444 -0.0000 0.0000 0.0000 -89.2307 7.2556 9.3374 13.6736 -22.2662 -2.7032 -0.0000 -0.0000 23.5227 14.3120 30.1838 7.3093 -7.1250 0.0000 -0.0000 -19.5398 59.8793 -7.2626 -0.0000 0.0000 0.0000 84.7700 -4.8940 12.4845 -14.5677 23.5405 -3.0512 0.0000 0.0000 20.2001 -20.4540 17.5078 -6.4020 7.1250 -0.0000 -0.0000 4.9389 -11.4260 3.8774
9.5760 18.1358 -19.1657 -0.4627 -13.6137 4.2977 0.0000 0.0000 0.0000 -16.2908 -0.0895 -13.0470 8.4192 16.4191 54.0590 0.0019 -0.2936 -0.7799 0.0259 -1.0388 -2.8555 0.0000 0.0000 0.0000 24.3985 6.4597 -12.7907 -1.3687 -7.4042 20.9185 -0.3581 3.4891 -10.6451 -0.0003 0.1202 -0.3301 0.3918 -0.5448 -0.1532 1.6689 -0.7612 1.7361 1.4774 -0.3898 1.8822 -1.0239 1.4497 -9.2516 -2.8337 2.8058 23.0220 -0.5021 0.9178 8.7288 -0.0000 -0.0000 0.0000 -89.2113 5.7088 9.4255 13.6221 -22.1918 -2.6837 -0.0000 -0.0000 23.5025 12.9654 30.8246 6.7283 -7.1250 0.0000 -0.0000 -21.4569 60.1610 -8.1590 -0.0000 -0.0000 0.0000 84.5802 -3.1084 11.8656 -14.4367 23.3556 -2.9991 0.0000 0.0000 21.1977 -21.2407 18.2248 -6.9310 7.1250 -0.0000 -0.0000 4.4674 -10.5700 3.5833
9.5423 18.1304 -19.0712 -0.4557 -13.4568 3.9982 0.0000 0.0000 0.0000 -16.2128 -0.5466 -13.6900 8.6335 16.5660 54.8137 0.0132 0.5857 -2.4721 0.0012 -0.2257 -0.6201 0.0000 0.0000 0.0000 24.5231 6.7585 -11.8734 -1.3671 -7.4001 20.9063 -0.3877 2.7357 -11.1367 -0.0067 0.5296 -1.4552 0.4732 -0.5917 -0.0403 1.6053 -0.8235 1.8249 1.3662 -0.4194 1.9093 -1.1616 1.4720 -9.5997 -2.8304 2.8874 23.4976 -0.4672 0.9315 8.9572 -0.0000 0.0000 0.0000 -88.9548 6.1934 10.9933 14.2869 -23.1433 -2.9399 -0.0000 -0.0000 21.3196 16.0035 29.6250 8.0695 -7.1250 0.0000 -0.0000 -17.3346 59.7436 -6.3545 -0.0000 0.0000 0.0000 84.4832 -2.5533 12.0570 -14.3913 23.2913 -2.9811 0.0000 0.0000 21.9547 -21.9498 19.0111 -7.4790 7.1250 -0.0000 -0.0000 4.0621 -9.6421 3.3330
9.5076 18.1250 -18.9731 -0.1842 -13.3893 3.7284 0.0000 0.0000 0.0000 -16.4476 -0.8582 -14.3677 8.7954 16.6742 55.3798 0.0300 1.1192 -3.8854 0.0010 -0.2052 -0.5639 0.0000 0.0000 0.0000 24.3713 6.6706 -11.2086 -1.3700 -7.4075 20.9285 -0.4111 2.3825 -11.5228 -0.0204 0.9216 -2.5330 0.9013 -0.9636 1.7415 1.2034 -1.2676 0.7596 0.7502 -0.6344 -0.1905 -1.5779 1.8313 -9.2669 -2.4693 3.4016 24.5443 -0.2231 1.1504 9.2511 0.0000 0.0000 0.0000 -88.4349 9.0840 12.9748 15.5972 -24.9714 -3.4742 -0.0000 -0.0000 17.8448 13.6066 31.9026 7.2895 -7.1250 0.0000 -0.0000 -21.6684 61.3076 -8.8377 0.0000 0.0000 0.0000 84.4754 -3.4231 13.5611 -14.1921 23.0086 -2.9028 0.0000 0.0000 22.6811 -22.5574 20.2652 -8.1873 7.1250 -0.0000 -0.0000 3.7738 -8.2266 3.2021
9.4723 18.1209 -18.8854 -0.1927 -13.5312 3.7193 0.0000 0.0000 0.0000 -16.3686 -0.9326 -15.3459 8.9119 16.7507 55.7850 0.0544 1.7448 -5.4104 0.0259 -1.0396 -2.8577 0.0000 0.0000 0.0000 24.4933 6.7315 -10.8516 -1.3881 -7.4543 21.0684 -0.4435 2.3518 -11.9884 -0.0056 0.4834 -1.3284 0.5737 -0.6749 1.2097 1.2943 -0.8991 1.0029 1.0108 -0.4514 0.3604 -1.7566 1.5893 -9.5643 -2.4448 3.1106 24.7501 -0.2121 0.9950 9.3754 0.0000 -0.0000 0.0000 -88.2735 9.0372 14.5397 16.1669 -25.7464 -3.7182 -0.0000 -0.0000 16.6852 16.3845 31.0687 8.6280 -7.1250 0.0000 -0.0000 -17.9941 61.2083 -7.2356 0.0000 -0.0000 0.0000 84.0884 -2.4651 13.5649 -13.9263 22.6292 -2.7997 0.0000 0.0000 23.0629 -22.7321 20.7960 -8.4608 7.1250 -0.0000 -0.0000 3.7100 -7.6382 3.1908
9.4369 18.1175 -18.8007 -0.4299 -13.8525 3.8328 0.0000 0.0000 0.0000 -16.0479 -0.9150 -16.4421 8.9869 16.7993 56.0447 0.0854 1.8105 -6.5007 0.0183 -0.8727 -2.3985 0.0000 0.0000 0.0000 24.8288 6.8507 -10.6655 -1.4195 -7.5348 21.3097 -0.4767 2.5463 -12.4156 -0.0004 0.1241 -0.3410 0.9186 -0.5860 1.2419 1.2373 -0.7749 0.8808 0.7593 -0.3875 0.2104 -2.0307 1.6425 -9.6978 -2.1821 3.1885 25.0616 -0.0651 1.0257 9.5023 0.0000 0.0000 0.0000 -88.1872 9.1604 14.3875 16.4440 -26.1190 -3.8393 -0.0000 -0.0000 16.5182 17.3637 30.6484 9.0566 -7.1250 0.0000 -0.0000 -16.6063 61.0467 -6.5954 0.0000 0.0000 0.0000 84.0068 -1.9709 14.1256 -13.9908 22.7216 -2.8246 0.0000 0.0000 22.5457 -21.0696 20.6294 -7.7298 7.1250 -0.0000 -0.0000 4.7564 -8.0711 4.0559
9.4030 18.1075 -18.7141 -0.4908 -14.1465 3.8974 0.0000 0.0000 0.0000 -15.9246 -0.9905 -17.4604 9.0276 16.8255 56.1857 0.1296 1.9751 -7.8285 0.0146 -0.7797 -2.1427 0.0000 0.0000 0.0000 24.9590 6.7763 -10.5447 -1.4514 -7.6153 21.5516 -0.5076 2.8446 -12.7845 -0.0001 -0.0529 0.1453 1.0668 -0.4823 1.1233 1.1543 -0.6365 0.8280 0.5891 -0.3174 0.2194 -1.8590 1.6877 -9.4304 -2.4678 3.2762 24.9397 -0.1861 1.0567 9.4171 0.0000 0.0000 0.0000 -88.1766 9.1242 14.1034 16.6508 -26.3951 -3.9308 -0.0000 -0.0000 16.4217 17.2451 30.5805 8.9742 -7.1250 0.0000 -0.0000 -16.6855 60.9529 -6.5906 0.0000 0.0000 0.0000 84.0117 -1.4235 14.1834 -14.0621 22.8234 -2.8522 0.0000 0.0000 22.4540 -20.0553 20.7457 -7.3682 7.1250 -0.0000 -0.0000 5.4133 -8.0994 4.6178
9.3720 18.0928 -18.6292 -0.4428 -14.2440 3.8383 0.0000 0.0000 0.0000 -15.9254 -1.2146 -18.2978 9.0342 16.8297 56.2084 0.1797 2.1146 -9.0769 0.0090 -0.6124 -1.6830 0.0000 0.0000 0.0000 24.9820 6.6268 -10.3168 -1.4832 -7.6945 21.7901 -0.5390 3.0533 -13.1610 -0.0094 -0.6277 1.7250 1.0702 -0.4435 1.1193 1.0526 -0.5843 0.8084 0.4826 -0.2910 0.2003 -1.7270 1.7443 -9.4194 -2.7514 3.4053 25.0539 -0.2923 1.0957 9.4645 -0.0000 -0.0000 0.0000 -88.2573 8.9070 13.3530 16.7776 -26.5637 -3.9874 -0.0000 -0.0000 16.5586 16.8449 30.5693 8.7539 -7.1250 0.0000 -0.0000 -17.1129 60.8450 -6.7211 -0.0000 -0.0000 0.0000 83.9875 -0.7241 14.3135 -13.9085 22.6038 -2.7928 0.0000 0.0000 22.7355 -20.4298 20.7180 -7.5069 7.1250 -0.0000 -0.0000 5.1721 -8.0736 4.4129
